<?xml version="1.0" standalone="no"?>
<!DOCTYPE svg PUBLIC "-//W3C//DTD SVG 20010904//EN"
 "http://www.w3.org/TR/2001/REC-SVG-20010904/DTD/svg10.dtd">
<svg version="1.0" xmlns="http://www.w3.org/2000/svg"
 width="1280.000000pt" height="1280.000000pt" viewBox="0 0 1280.000000 1280.000000"
 preserveAspectRatio="xMidYMid meet">
<metadata>
Created by potrace 1.15, written by Peter Selinger 2001-2017
</metadata>
<g transform="translate(0.000000,1280.000000) scale(0.100000,-0.100000)"
fill="#000000" stroke="none">
<path d="M6125 12794 c-27 -2 -120 -8 -205 -14 -1064 -76 -2167 -459 -3090
-1073 -1526 -1016 -2540 -2669 -2779 -4527 -37 -289 -46 -430 -46 -780 0 -510
39 -869 147 -1360 328 -1499 1187 -2843 2393 -3745 982 -734 2131 -1169 3375
-1277 187 -16 773 -16 960 0 1244 108 2393 543 3375 1277 1367 1023 2271 2590
2494 4325 37 289 46 430 46 780 0 350 -9 491 -46 780 -159 1237 -669 2406
-1462 3350 -1070 1275 -2648 2090 -4347 2246 -154 14 -704 26 -815 18z"/>
</g>
</svg>
