<svg width="975" height="774" viewBox="0 0 975 774" fill="none" xmlns="http://www.w3.org/2000/svg">
<g clip-path="url(#clip0_18:339)">
<path d="M520.967 163.958C556.313 163.958 584.967 135.304 584.967 99.9579C584.967 64.6117 556.313 35.9579 520.967 35.9579C485.621 35.9579 456.967 64.6117 456.967 99.9579C456.967 135.304 485.621 163.958 520.967 163.958Z" fill="#FF6584"/>
<path d="M328.263 407.972C328.263 531.582 254.779 574.742 164.132 574.742C73.4842 574.742 0 531.582 0 407.972C0 284.362 164.132 127.11 164.132 127.11C164.132 127.11 328.263 284.362 328.263 407.972Z" fill="#F2F2F2"/>
<path d="M158.153 555.833L159.833 452.383L229.79 324.4L160.097 436.154L160.852 389.639L209.067 297.044L161.052 377.329L162.412 293.669L214.04 219.952L162.625 280.514L163.474 127.11L158.138 330.188L158.576 321.811L106.085 241.464L157.735 337.893L152.844 431.327L152.698 428.847L92.1851 344.294L152.515 437.608L151.903 449.293L151.794 449.469L151.844 450.428L139.435 687.478H156.014L158.003 565.037L218.185 471.952L158.153 555.833Z" fill="#3F3D56"/>
<path d="M814.647 343.122C814.647 494.133 724.873 546.861 614.132 546.861C503.39 546.861 413.616 494.133 413.616 343.122C413.616 192.11 614.132 0 614.132 0C614.132 0 814.647 192.11 814.647 343.122Z" fill="#F2F2F2"/>
<path d="M606.827 523.761L608.88 397.378L694.345 241.024L609.202 377.552L610.126 320.725L669.028 207.605L610.37 305.687L612.03 203.481L675.104 113.423L612.291 187.409L613.329 0L606.809 248.096L607.345 237.861L543.218 139.704L606.317 257.508L600.341 371.654L600.164 368.625L526.236 265.329L599.94 379.328L599.192 393.603L599.059 393.818L599.12 394.99L583.96 684.589H604.214L606.645 535.005L680.167 421.285L606.827 523.761Z" fill="#3F3D56"/>
<path d="M399.967 695.958C570.071 695.958 707.967 691.033 707.967 684.958C707.967 678.883 570.071 673.958 399.967 673.958C229.863 673.958 91.967 678.883 91.967 684.958C91.967 691.033 229.863 695.958 399.967 695.958Z" fill="#3F3D56"/>
<path d="M417.967 346.958H381.967V684.958H417.967V346.958Z" fill="#2F2E41"/>
<path d="M564.967 423.958H343.967V361.958H564.967L628.967 392.958L564.967 423.958Z" fill="#3F3D56"/>
<path opacity="0.1" d="M564.967 418.958H343.967V423.958H564.967L628.967 392.958L623.806 390.458L564.967 418.958Z" fill="black"/>
<path d="M235.967 505.958H456.967V443.958H235.967L171.967 474.958L235.967 505.958Z" fill="#3F3D56"/>
<path opacity="0.1" d="M177.128 472.458L171.967 474.958L235.967 505.958H456.967V500.958H235.967L177.128 472.458Z" fill="black"/>
<path d="M505.967 373.958H467.967V411.958H505.967V373.958Z" fill="#6C63FF"/>
<path d="M314.967 493.958C325.46 493.958 333.967 485.451 333.967 474.958C333.967 464.464 325.46 455.958 314.967 455.958C304.474 455.958 295.967 464.464 295.967 474.958C295.967 485.451 304.474 493.958 314.967 493.958Z" fill="#6C63FF"/>
<path d="M399.967 401.958C406.042 401.958 410.967 397.033 410.967 390.958C410.967 384.883 406.042 379.958 399.967 379.958C393.892 379.958 388.967 384.883 388.967 390.958C388.967 397.033 393.892 401.958 399.967 401.958Z" fill="#2F2E41"/>
<path d="M399.967 483.958C406.042 483.958 410.967 479.033 410.967 472.958C410.967 466.883 406.042 461.958 399.967 461.958C393.892 461.958 388.967 466.883 388.967 472.958C388.967 479.033 393.892 483.958 399.967 483.958Z" fill="#2F2E41"/>
<path d="M325.967 647.294C325.967 669.763 312.611 677.608 296.133 677.608C295.751 677.608 295.37 677.604 294.99 677.595C294.226 677.579 293.47 677.542 292.723 677.491C277.853 676.439 266.299 668.19 266.299 647.294C266.299 625.669 293.934 598.382 296.009 596.362L296.013 596.359C296.093 596.28 296.133 596.242 296.133 596.242C296.133 596.242 325.967 624.825 325.967 647.294Z" fill="#6C63FF"/>
<path d="M295.046 674.17L305.958 658.924L295.019 675.845L294.99 677.595C294.226 677.579 293.47 677.542 292.723 677.491L293.899 655.012L293.89 654.837L293.91 654.805L294.021 652.682L283.055 635.719L294.055 651.089L294.081 651.54L294.97 634.556L285.581 617.028L295.084 631.575L296.009 596.362L296.013 596.242V596.358L295.859 624.126L305.205 613.118L295.82 626.518L295.573 641.725L304.3 627.13L295.537 643.962L295.399 652.416L308.068 632.104L295.351 655.366L295.046 674.17Z" fill="#3F3D56"/>
<path d="M828 759C749.576 759 686 752.956 686 745.5C686 738.044 749.576 732 828 732C906.424 732 970 738.044 970 745.5C970 752.956 906.424 759 828 759Z" fill="#3F3D56"/>
<path d="M873.96 720.914C873.96 720.914 888.119 732.837 895.571 732.092C903.023 731.347 917.182 731.347 911.221 739.544C905.259 747.742 880.667 752.213 870.234 752.958C859.801 753.703 836.699 754.449 838.19 749.977C839.68 745.506 841.17 724.64 847.132 723.15C853.094 721.659 873.96 720.914 873.96 720.914Z" fill="#575A89"/>
<path d="M792.695 709.207C792.695 709.207 803.128 724.498 810.506 725.783C817.885 727.068 831.523 730.873 823.577 737.166C815.632 743.46 790.743 741.157 780.493 739.071C770.244 736.985 747.792 731.494 750.429 727.588C753.067 723.682 760.11 703.984 766.253 704.151C772.396 704.317 792.695 709.207 792.695 709.207Z" fill="#575A89"/>
<path d="M882.254 490.538C882.254 490.538 891.845 556.222 889.609 568.145C887.374 580.069 885.883 598.699 885.883 598.699C885.883 598.699 887.374 614.348 885.883 621.8C884.393 629.253 875.45 700.048 875.45 701.538C875.45 703.029 876.941 707.5 875.45 711.226C873.96 714.952 870.979 711.971 875.45 717.933C879.922 723.895 876.941 725.385 876.196 725.385C875.45 725.385 846.387 728.366 844.897 725.385C843.406 722.404 845.642 721.659 844.897 717.933C844.151 714.207 843.406 713.462 841.916 712.717C840.425 711.971 837.444 713.462 839.68 709.736C841.916 706.01 847.132 701.538 845.642 699.303C844.151 697.067 846.387 680.672 846.387 680.672C846.387 680.672 847.877 644.157 848.623 621.8C849.368 599.444 841.916 576.342 841.916 576.342C840.988 594.635 834.194 612.142 822.54 626.272C803.165 649.373 793.477 692.596 793.477 692.596C793.477 692.596 789.006 699.303 791.241 705.264C793.477 711.226 800.184 707.5 793.477 711.226C786.77 714.952 763.668 709.736 761.433 707.5C759.197 705.264 764.413 702.284 762.923 696.322C761.433 690.36 755.471 691.851 760.687 688.87C765.904 685.889 767.394 686.634 767.394 683.653C767.394 680.672 780.808 615.839 801.674 597.208L803.165 529.394C803.165 529.394 784.534 481.7 803.91 477.229C823.285 472.758 882.254 490.538 882.254 490.538Z" fill="#2F2E41"/>
<path d="M868.743 314.027C868.743 314.027 856.075 345.326 859.056 349.798C862.036 354.269 822.54 334.893 822.54 334.893C822.54 334.893 835.209 303.594 835.209 299.868C835.209 296.142 868.743 314.027 868.743 314.027Z" fill="#A0616A"/>
<path d="M859.428 321.852C844.2 321.852 831.855 309.507 831.855 294.279C831.855 279.051 844.2 266.706 859.428 266.706C874.656 266.706 887.001 279.051 887.001 294.279C887.001 309.507 874.656 321.852 859.428 321.852Z" fill="#A0616A"/>
<path d="M822.54 322.225C822.54 322.225 841.916 319.989 851.604 331.912C861.291 343.836 862.782 346.817 862.782 346.817C862.782 346.817 885.883 384.077 881.412 402.708C880.322 404.39 879.327 406.131 878.431 407.924C876.941 410.905 876.941 452.637 878.431 459.344C879.922 466.051 881.412 468.287 879.922 477.974C878.431 487.662 891.845 503.312 876.196 506.292C860.546 509.273 848.623 507.038 843.406 500.331C838.19 493.624 842.661 489.152 826.266 489.152C809.872 489.152 799.439 477.974 799.439 477.974C799.439 477.974 807.636 469.032 804.655 467.541C801.674 466.051 804.655 462.325 806.146 458.599C807.636 454.873 807.636 451.892 805.4 451.892C803.165 451.892 804.655 450.401 806.146 446.675C807.636 442.949 780.063 378.861 796.458 360.231C812.852 341.6 821.05 331.167 821.05 331.167C821.05 331.167 818.069 319.989 822.54 322.225Z" fill="#6C63FF"/>
<path d="M865.017 393.02V425.809L888.864 504.802C888.864 504.802 904.514 545.789 888.864 545.789C873.215 545.789 874.053 506.669 874.053 506.669L840.425 447.421C840.425 447.421 827.012 400.472 828.502 396.746C829.992 393.02 865.017 393.02 865.017 393.02Z" fill="#A0616A"/>
<path d="M852.349 344.581C852.349 344.581 874.705 353.524 868.743 377.37C862.782 401.217 868.743 400.472 868.743 400.472C868.743 400.472 838.19 397.491 828.502 404.198L826.266 395.256C826.266 395.256 817.324 343.836 852.349 344.581Z" fill="#6C63FF"/>
<path d="M868.843 273.58C870.564 274.19 872.41 274.363 874.214 274.082C876.018 273.801 877.724 273.076 879.177 271.972C881.986 269.657 883.178 265.387 881.525 262.144C880.099 259.344 877.047 257.807 874.12 256.661C867.664 254.136 860.864 252.601 853.949 252.107C850.653 251.872 847.19 251.91 844.248 253.416C842.793 254.161 841.528 255.236 840.087 256.008C837.436 257.427 834.351 257.743 831.487 258.656C828.556 259.612 825.865 261.187 823.595 263.273C821.325 265.359 819.53 267.909 818.331 270.749C817.553 272.677 817.009 274.693 816.711 276.751C815.854 282.388 816.453 288.149 818.45 293.489C821.627 301.947 828.289 309.341 828.665 318.368C832.743 315.41 834.255 310.07 837.523 306.235C839.954 303.401 843.275 301.475 846.942 300.772C847.957 300.71 848.933 300.354 849.75 299.748C850.319 299.068 850.675 298.236 850.775 297.356L853.565 284.182C854.133 281.501 854.851 278.577 857.055 276.948C858.427 276.07 859.983 275.522 861.602 275.346C865.45 274.674 869.346 274.318 873.252 274.284" fill="#2F2E41"/>
</g>
<defs>
<clipPath id="clip0_18:339">
<rect width="974.967" height="773.958" fill="white"/>
</clipPath>
</defs>
</svg>
